<svg width="276" height="31" viewBox="0 0 276 31" fill="none" xmlns="http://www.w3.org/2000/svg">
<path d="M39.1 24.1C38.6333 24.1 38.2 24.0333 37.8 23.9C36.5333 23.6333 35.6333 22.8667 35.1 21.6C34.7 20.4667 34.8 19.2 35.4 17.8C36.0667 16.4 36.9333 14.8333 38 13.1C38.4 12.5 38.7667 11.9 39.1 11.3C39.5 10.6333 39.8333 10.0333 40.1 9.5C40.2333 9.3 40.3333 9.13333 40.4 9C40.4667 8.8 40.5333 8.63333 40.6 8.5C38.6 8.16667 36.2667 8.1 33.6 8.3C31 8.43333 28.0667 8.93333 24.8 9.8C21.9333 10.5333 18.8333 11.5 15.5 12.7C12.2333 13.8333 8.76667 15.2 5.1 16.8C4.36667 17.0667 3.63333 17.0667 2.9 16.8C2.16667 16.5333 1.63333 16.0333 1.3 15.3C0.9 14.5667 0.866667 13.8 1.2 13C1.53333 12.1333 2.06667 11.5667 2.8 11.3C6.53333 9.63333 10.1 8.2 13.5 7C16.9667 5.73333 20.2333 4.73333 23.3 4C31.5 1.93333 38.2 1.6 43.4 3C44.9333 3.4 46 4.33333 46.6 5.8C47.2 7.26667 47.0667 8.9 46.2 10.7C45.3333 12.5 44.3 14.3667 43.1 16.3C43.0333 16.4333 42.9333 16.6 42.8 16.8C42.6667 17 42.5333 17.2333 42.4 17.5C43.9333 17.1667 46.2 16.5 49.2 15.5C52.2 14.5 56.3333 13.0333 61.6 11.1C62.3333 10.8333 63.0667 10.9 63.8 11.3C64.6 11.6333 65.1333 12.2 65.4 13C65.7333 13.7333 65.7333 14.5 65.4 15.3C65.0667 16.0333 64.4667 16.5667 63.6 16.9C60.5333 17.9667 57.7333 18.9333 55.2 19.8C52.6667 20.6667 50.4 21.4 48.4 22C45.7333 22.8 43.7 23.3667 42.3 23.7C40.9 23.9667 39.8333 24.1 39.1 24.1ZM70.8867 30.8C70.4201 30.8 69.9534 30.7333 69.4867 30.6C69.0201 30.5333 68.5534 30.4667 68.0867 30.4C66.8867 30.0667 66.0534 29.3667 65.5867 28.3C64.9867 26.9667 64.9867 25.3667 65.5867 23.5C66.2534 21.5667 67.3201 19.1 68.7867 16.1C69.0534 15.5667 69.3201 14.9667 69.5867 14.3C69.9201 13.6333 70.2201 13 70.4867 12.4C69.6201 12.7333 68.6867 13.3 67.6867 14.1C66.7534 14.8333 65.7867 15.6 64.7867 16.4C64.1201 16.8667 63.3867 17.0667 62.5867 17C61.7201 16.8667 61.0201 16.5 60.4867 15.9C60.0201 15.2333 59.8534 14.5 59.9867 13.7C60.0534 12.9 60.3867 12.2 60.9867 11.6C61.9201 10.9333 62.8867 10.2 63.8867 9.4C64.9534 8.6 66.0201 7.93333 67.0867 7.4C69.8201 6 72.3201 5.63333 74.5867 6.3C75.6534 6.5 76.4534 7.16667 76.9867 8.3C77.5201 9.36667 77.4867 10.7 76.8867 12.3C76.3534 13.9 75.4201 16.0667 74.0867 18.8C73.7534 19.6 73.3867 20.4 72.9867 21.2C72.6534 22 72.3201 22.7667 71.9867 23.5C71.9201 23.7667 71.8201 24 71.6867 24.2C71.6201 24.4 71.5534 24.6 71.4867 24.8C72.8867 24.6 74.9201 23.9 77.5867 22.7C80.3201 21.4333 83.9867 18.9667 88.5867 15.3C91.0534 13.3667 93.2867 11.5 95.2867 9.7C97.2867 7.83333 98.8867 6.3 100.087 5.1C101.287 3.9 101.887 3.3 101.887 3.3C102.687 2.36667 103.653 2.06667 104.787 2.4C105.32 2.46666 105.753 2.7 106.087 3.1C106.42 3.43333 106.687 3.76667 106.887 4.1C107.353 5.03333 107.387 6.13333 106.987 7.4C106.653 8.6 105.92 10.5667 104.787 13.3C104.387 14.1667 103.987 15.0333 103.587 15.9C103.253 16.7667 102.92 17.5667 102.587 18.3C102.52 18.5667 102.453 18.8 102.387 19C102.387 19.1333 102.353 19.2667 102.287 19.4C103.553 19.2 104.887 18.6667 106.287 17.8C107.753 16.8667 109.153 15.8333 110.487 14.7C111.887 13.5667 113.053 12.6 113.987 11.8C114.653 11.2 115.387 10.9333 116.187 11C116.987 11.0667 117.687 11.4 118.287 12C118.82 12.6667 119.053 13.4 118.987 14.2C118.987 15 118.653 15.7 117.987 16.3C115.92 18.1 113.787 19.8 111.587 21.4C109.453 23 107.287 24.2 105.087 25C102.953 25.7333 100.787 25.8333 98.5867 25.3C97.5201 24.8333 96.7534 24.1667 96.2867 23.3C95.8867 22.3667 95.7534 21.3333 95.8867 20.2C96.0867 19.0667 96.4867 17.6667 97.0867 16C96.3534 16.6667 95.5867 17.3 94.7867 17.9C94.0534 18.5 93.2534 19.1667 92.3867 19.9C83.1867 27.1667 76.0201 30.8 70.8867 30.8ZM138.909 25.1C138.109 25.1 137.443 24.8667 136.909 24.4C135.843 23.5333 135.543 22.4333 136.009 21.1C136.009 21.0333 136.243 20.2333 136.709 18.7C137.243 17.1667 137.843 15.4333 138.509 13.5C138.843 12.3667 139.143 11.4 139.409 10.6C139.676 9.73333 139.909 8.96667 140.109 8.3C138.309 8.96667 136.109 9.8 133.509 10.8C130.909 11.7333 128.176 12.7333 125.309 13.8C122.509 14.8667 119.776 15.9 117.109 16.9C116.376 17.1667 115.643 17.1333 114.909 16.8C114.109 16.4 113.543 15.8 113.209 15C112.943 14.2667 113.009 13.5333 113.409 12.8C113.743 12 114.309 11.4333 115.109 11.1C118.109 10.0333 121.209 8.93333 124.409 7.8C127.609 6.6 130.576 5.5 133.309 4.5C136.043 3.43333 138.276 2.56667 140.009 1.9C141.743 1.23333 142.609 0.899997 142.609 0.899997C142.943 0.833331 143.276 0.799999 143.609 0.799999C143.943 0.733333 144.243 0.766666 144.509 0.899997C145.443 1.03333 146.109 1.56666 146.509 2.5C146.843 3.03333 146.976 3.73333 146.909 4.6C146.909 5.4 146.743 6.56666 146.409 8.1C146.209 8.96667 145.943 9.93333 145.609 11C145.343 12 144.976 13.1667 144.509 14.5C144.443 14.7667 144.376 15 144.309 15.2C144.243 15.4 144.176 15.6333 144.109 15.9C146.776 14.4333 150.043 12.9 153.909 11.3C154.643 10.9667 155.376 10.9667 156.109 11.3C156.909 11.5667 157.443 12.0667 157.709 12.8C158.109 13.5333 158.143 14.3 157.809 15.1C157.476 15.9 156.943 16.4667 156.209 16.8C153.209 18.1333 150.509 19.4 148.109 20.6C145.776 21.8 143.909 22.7667 142.509 23.5C141.109 24.2333 140.409 24.6 140.409 24.6C140.009 24.9333 139.509 25.1 138.909 25.1ZM167.577 31C167.243 31 166.91 30.9667 166.577 30.9C166.243 30.9 165.877 30.8667 165.477 30.8C164.677 30.5333 164.01 29.9667 163.477 29.1C163.21 28.5667 163.077 27.8333 163.077 26.9C163.077 25.9667 163.377 24.4333 163.977 22.3C164.577 20.1667 165.543 17 166.877 12.8C165.41 13.3333 163.71 13.9667 161.777 14.7C159.91 15.4333 157.977 16.1667 155.977 16.9C155.243 17.1667 154.51 17.1333 153.777 16.8C152.977 16.4 152.41 15.8 152.077 15C151.81 14.2667 151.877 13.5333 152.277 12.8C152.61 12 153.177 11.4333 153.977 11.1C156.843 10.0333 159.51 9.03333 161.977 8.1C164.51 7.16667 166.577 6.4 168.177 5.8C169.777 5.2 170.577 4.9 170.577 4.9C171.243 4.63333 171.877 4.6 172.477 4.8C173.343 5 173.977 5.5 174.377 6.3C174.71 6.9 174.81 7.43333 174.677 7.9C174.61 8.36667 174.51 8.86667 174.377 9.4C174.243 9.66667 174.143 9.96667 174.077 10.3C174.01 10.5667 173.91 10.9 173.777 11.3C173.31 12.4333 172.81 13.8333 172.277 15.5C171.81 17.1 171.31 18.7333 170.777 20.4C170.443 21.3333 170.177 22.1333 169.977 22.8C169.777 23.4667 169.61 24.0667 169.477 24.6C170.743 24.3333 172.577 23.5667 174.977 22.3C177.043 21.1667 179.243 19.8667 181.577 18.4C183.977 16.8667 186.41 15.2667 188.877 13.6C189.41 13.2667 189.943 12.9333 190.477 12.6C191.077 12.2667 191.61 11.9 192.077 11.5C192.81 11.0333 193.577 10.9 194.377 11.1C195.243 11.2333 195.91 11.6667 196.377 12.4C196.843 13.0667 196.977 13.8 196.777 14.6C196.643 15.4 196.21 16.0333 195.477 16.5C194.943 16.9 194.377 17.3 193.777 17.7C193.243 18.0333 192.677 18.4 192.077 18.8C189.543 20.4667 187.077 22.0667 184.677 23.6C182.277 25.1333 180.01 26.4667 177.877 27.6C173.543 29.8667 170.11 31 167.577 31ZM216.741 25.1C215.941 25.1 215.275 24.8667 214.741 24.4C213.675 23.5333 213.375 22.4333 213.841 21.1C213.841 21.0333 214.075 20.2333 214.541 18.7C215.075 17.1667 215.675 15.4333 216.341 13.5C216.675 12.3667 216.975 11.4 217.241 10.6C217.508 9.73333 217.741 8.96667 217.941 8.3C216.141 8.96667 213.941 9.8 211.341 10.8C208.741 11.7333 206.008 12.7333 203.141 13.8C200.341 14.8667 197.608 15.9 194.941 16.9C194.208 17.1667 193.475 17.1333 192.741 16.8C191.941 16.4 191.375 15.8 191.041 15C190.775 14.2667 190.841 13.5333 191.241 12.8C191.575 12 192.141 11.4333 192.941 11.1C195.941 10.0333 199.041 8.93333 202.241 7.8C205.441 6.6 208.408 5.5 211.141 4.5C213.875 3.43333 216.108 2.56667 217.841 1.9C219.575 1.23333 220.441 0.899997 220.441 0.899997C220.775 0.833331 221.108 0.799999 221.441 0.799999C221.775 0.733333 222.075 0.766666 222.341 0.899997C223.275 1.03333 223.941 1.56666 224.341 2.5C224.675 3.03333 224.808 3.73333 224.741 4.6C224.741 5.4 224.575 6.56666 224.241 8.1C224.041 8.96667 223.775 9.93333 223.441 11C223.175 12 222.808 13.1667 222.341 14.5C222.275 14.7667 222.208 15 222.141 15.2C222.075 15.4 222.008 15.6333 221.941 15.9C224.608 14.4333 227.875 12.9 231.741 11.3C232.475 10.9667 233.208 10.9667 233.941 11.3C234.741 11.5667 235.275 12.0667 235.541 12.8C235.941 13.5333 235.975 14.3 235.641 15.1C235.308 15.9 234.775 16.4667 234.041 16.8C231.041 18.1333 228.341 19.4 225.941 20.6C223.608 21.8 221.741 22.7667 220.341 23.5C218.941 24.2333 218.241 24.6 218.241 24.6C217.841 24.9333 217.341 25.1 216.741 25.1ZM240.105 27.072C239.849 27.072 239.635 26.9973 239.465 26.848C239.123 26.5707 239.027 26.2187 239.177 25.792C239.177 25.7707 239.251 25.5147 239.401 25.024C239.571 24.5333 239.763 23.9787 239.977 23.36C240.083 22.9973 240.179 22.688 240.265 22.432C240.35 22.1547 240.425 21.9093 240.489 21.696C239.913 21.9093 239.209 22.176 238.377 22.496C237.545 22.7947 236.67 23.1147 235.753 23.456C234.857 23.7973 233.982 24.128 233.129 24.448C232.894 24.5333 232.659 24.5227 232.425 24.416C232.169 24.288 231.987 24.096 231.881 23.84C231.795 23.6053 231.817 23.3707 231.945 23.136C232.051 22.88 232.233 22.6987 232.489 22.592C233.449 22.2507 234.441 21.8987 235.465 21.536C236.489 21.152 237.438 20.8 238.313 20.48C239.187 20.1387 239.902 19.8613 240.457 19.648C241.011 19.4347 241.289 19.328 241.289 19.328C241.395 19.3067 241.502 19.296 241.609 19.296C241.715 19.2747 241.811 19.2853 241.897 19.328C242.195 19.3707 242.409 19.5413 242.537 19.84C242.643 20.0107 242.686 20.2347 242.665 20.512C242.665 20.768 242.611 21.1413 242.505 21.632C242.441 21.9093 242.355 22.2187 242.249 22.56C242.163 22.88 242.046 23.2533 241.897 23.68C241.875 23.7653 241.854 23.84 241.833 23.904C241.811 23.968 241.79 24.0427 241.769 24.128C242.622 23.6587 243.667 23.168 244.905 22.656C245.139 22.5493 245.374 22.5493 245.609 22.656C245.865 22.7413 246.035 22.9013 246.121 23.136C246.249 23.3707 246.259 23.616 246.153 23.872C246.046 24.128 245.875 24.3093 245.641 24.416C244.681 24.8427 243.817 25.248 243.049 25.632C242.302 26.016 241.705 26.3253 241.257 26.56C240.809 26.7947 240.585 26.912 240.585 26.912C240.457 27.0187 240.297 27.072 240.105 27.072ZM252.542 27.072C252.286 27.072 252.073 26.9973 251.902 26.848C251.561 26.5707 251.465 26.2187 251.614 25.792C251.614 25.7707 251.689 25.5147 251.838 25.024C252.009 24.5333 252.201 23.9787 252.414 23.36C252.521 22.9973 252.617 22.688 252.702 22.432C252.787 22.1547 252.862 21.9093 252.926 21.696C252.35 21.9093 251.646 22.176 250.814 22.496C249.982 22.7947 249.107 23.1147 248.19 23.456C247.294 23.7973 246.419 24.128 245.566 24.448C245.331 24.5333 245.097 24.5227 244.862 24.416C244.606 24.288 244.425 24.096 244.318 23.84C244.233 23.6053 244.254 23.3707 244.382 23.136C244.489 22.88 244.67 22.6987 244.926 22.592C245.886 22.2507 246.878 21.8987 247.902 21.536C248.926 21.152 249.875 20.8 250.75 20.48C251.625 20.1387 252.339 19.8613 252.894 19.648C253.449 19.4347 253.726 19.328 253.726 19.328C253.833 19.3067 253.939 19.296 254.046 19.296C254.153 19.2747 254.249 19.2853 254.334 19.328C254.633 19.3707 254.846 19.5413 254.974 19.84C255.081 20.0107 255.123 20.2347 255.102 20.512C255.102 20.768 255.049 21.1413 254.942 21.632C254.878 21.9093 254.793 22.2187 254.686 22.56C254.601 22.88 254.483 23.2533 254.334 23.68C254.313 23.7653 254.291 23.84 254.27 23.904C254.249 23.968 254.227 24.0427 254.206 24.128C255.059 23.6587 256.105 23.168 257.342 22.656C257.577 22.5493 257.811 22.5493 258.046 22.656C258.302 22.7413 258.473 22.9013 258.558 23.136C258.686 23.3707 258.697 23.616 258.59 23.872C258.483 24.128 258.313 24.3093 258.078 24.416C257.118 24.8427 256.254 25.248 255.486 25.632C254.739 26.016 254.142 26.3253 253.694 26.56C253.246 26.7947 253.022 26.912 253.022 26.912C252.894 27.0187 252.734 27.072 252.542 27.072ZM260.244 28.896C260.094 28.896 259.945 28.8747 259.796 28.832C259.646 28.8107 259.497 28.7893 259.348 28.768C258.964 28.6613 258.697 28.4373 258.548 28.096C258.356 27.6693 258.356 27.1573 258.548 26.56C258.761 25.9413 259.102 25.152 259.572 24.192C259.657 24.0213 259.742 23.8293 259.828 23.616C259.934 23.4027 260.03 23.2 260.116 23.008C259.838 23.1147 259.54 23.296 259.22 23.552C258.921 23.7867 258.612 24.032 258.292 24.288C258.078 24.4373 257.844 24.5013 257.588 24.48C257.31 24.4373 257.086 24.32 256.916 24.128C256.766 23.9147 256.713 23.68 256.756 23.424C256.777 23.168 256.884 22.944 257.076 22.752C257.374 22.5387 257.684 22.304 258.004 22.048C258.345 21.792 258.686 21.5787 259.028 21.408C259.902 20.96 260.702 20.8427 261.428 21.056C261.769 21.12 262.025 21.3333 262.196 21.696C262.366 22.0373 262.356 22.464 262.164 22.976C261.993 23.488 261.694 24.1813 261.268 25.056C261.161 25.312 261.044 25.568 260.916 25.824C260.809 26.08 260.702 26.3253 260.596 26.56C260.574 26.6453 260.542 26.72 260.5 26.784C260.478 26.848 260.457 26.912 260.436 26.976C260.884 26.912 261.534 26.688 262.388 26.304C263.262 25.8987 264.436 25.1093 265.908 23.936C266.697 23.3173 267.412 22.72 268.052 22.144C268.692 21.5467 269.204 21.056 269.588 20.672C269.972 20.288 270.164 20.096 270.164 20.096C270.42 19.7973 270.729 19.7013 271.092 19.808C271.262 19.8293 271.401 19.904 271.508 20.032C271.614 20.1387 271.7 20.2453 271.764 20.352C271.913 20.6507 271.924 21.0027 271.796 21.408C271.689 21.792 271.454 22.4213 271.092 23.296C270.964 23.5733 270.836 23.8507 270.708 24.128C270.601 24.4053 270.494 24.6613 270.388 24.896C270.366 24.9813 270.345 25.056 270.324 25.12C270.324 25.1627 270.313 25.2053 270.292 25.248C270.697 25.184 271.124 25.0133 271.572 24.736C272.041 24.4373 272.489 24.1067 272.916 23.744C273.364 23.3813 273.737 23.072 274.036 22.816C274.249 22.624 274.484 22.5387 274.74 22.56C274.996 22.5813 275.22 22.688 275.412 22.88C275.582 23.0933 275.657 23.328 275.636 23.584C275.636 23.84 275.529 24.064 275.316 24.256C274.654 24.832 273.972 25.376 273.268 25.888C272.585 26.4 271.892 26.784 271.188 27.04C270.505 27.2747 269.812 27.3067 269.108 27.136C268.766 26.9867 268.521 26.7733 268.372 26.496C268.244 26.1973 268.201 25.8667 268.244 25.504C268.308 25.1413 268.436 24.6933 268.628 24.16C268.393 24.3733 268.148 24.576 267.892 24.768C267.657 24.96 267.401 25.1733 267.124 25.408C264.18 27.7333 261.886 28.896 260.244 28.896Z" fill="black"/>
</svg>
